<svg xmlns="http://www.w3.org/2000/svg" xmlns:xlink="http://www.w3.org/1999/xlink" width="124.44pt" height="144.00pt" viewBox="0 0 124.44 144.00"><metadata><rdf:RDF xmlns:rdf="http://www.w3.org/1999/02/22-rdf-syntax-ns#" xmlns:dc="http://purl.org/dc/elements/1.1/"><rdf:Description><dc:creator>RealFaviconGenerator</dc:creator><dc:source>https://realfavicongenerator.net</dc:source></rdf:Description></rdf:RDF></metadata><g class="svglite">
<defs>
  <style type="text/css">
    .svglite line, .svglite polyline, .svglite polygon, .svglite path, .svglite rect, .svglite circle {
      fill: none;
      stroke: #000000;
      stroke-linecap: round;
      stroke-linejoin: round;
      stroke-miterlimit: 10.00;
    }
    .svglite text {
      white-space: pre;
    }
    .svglite g.glyphgroup path {
      fill: inherit;
      stroke: none;
    }
  </style>
</defs>
<rect width="100%" height="100%" style="stroke: none; fill: none;"></rect>
<defs>
  <clipPath id="cpMC4wMHwxMjQuNDR8MC4wMHwxNDQuMDA=">
    <rect x="0.00" y="0.00" width="124.44" height="144.00"></rect>
  </clipPath>
</defs>
<g clip-path="url(#cpMC4wMHwxMjQuNDR8MC4wMHwxNDQuMDA=)">
</g>
<defs>
  <clipPath id="cpMC4wNnwxMjQuMzh8MC4wMHwxNDQuMDA=">
    <rect x="0.060" y="0.00" width="124.32" height="144.00"></rect>
  </clipPath>
</defs>
<g clip-path="url(#cpMC4wNnwxMjQuMzh8MC4wMHwxNDQuMDA=)">
<rect x="0.060" y="0.00" width="124.32" height="144.00" style="stroke-width: 1.07; stroke: none;"></rect>
</g>
<g clip-path="url(#cpMC4wMHwxMjQuNDR8MC4wMHwxNDQuMDA=)">
</g>
<defs>
  <clipPath id="cpMC4wMHwxMjQuMzh8MC4wMHwxNDQuMDA=">
    <rect x="0.00" y="0.00" width="124.38" height="144.00"></rect>
  </clipPath>
</defs>
<g clip-path="url(#cpMC4wMHwxMjQuMzh8MC4wMHwxNDQuMDA=)">
<rect x="-2.82" y="0.00" width="127.20" height="146.88" style="stroke-width: 1.07; stroke: none;"></rect>
<polygon points="3.38,40.30 3.38,106.58 60.78,139.72 118.18,106.58 118.18,40.30 60.78,7.16 3.38,40.30 " style="stroke-width: 4.69; stroke: none; stroke-linecap: butt; fill: #FFFFFF;"></polygon>
</g>
<defs>
  <clipPath id="cpMjQuMzN8OTcuMjR8NjMuNTB8MTA5Ljg5">
    <rect x="24.33" y="63.50" width="72.91" height="46.40"></rect>
  </clipPath>
</defs>
<g clip-path="url(#cpMjQuMzN8OTcuMjR8NjMuNTB8MTA5Ljg5)">
<rect x="24.33" y="63.50" width="72.91" height="46.40" style="stroke-width: 0.00; stroke: none;"></rect>
</g>
<g clip-path="url(#cpMC4wMHwxMjQuMzh8MC4wMHwxNDQuMDA=)">
</g>
<g clip-path="url(#cpMC4wMHwxMjQuNDR8MC4wMHwxNDQuMDA=)">
</g>
<g clip-path="url(#cpMjQuMzN8OTcuMjR8NjMuNTB8MTA5Ljg5)">
<rect x="24.33" y="63.50" width="72.91" height="46.40" style="stroke-width: 0.00; stroke: none;"></rect>
<line x1="27.64" y1="86.70" x2="27.64" y2="68.85" style="stroke-width: 2.67; stroke: #F6AD55;"></line>
<line x1="27.64" y1="68.85" x2="93.92" y2="68.85" style="stroke-width: 2.67; stroke: #F6AD55; stroke-linecap: butt;"></line>
<polyline points="86.56,73.10 93.92,68.85 86.56,64.60 " style="stroke-width: 2.67; stroke: #F6AD55; stroke-linecap: butt;"></polyline>
<line x1="67.41" y1="86.70" x2="80.66" y2="68.85" style="stroke-width: 2.67; stroke: #F6AD55; stroke-dasharray: 14.23,14.23; stroke-linecap: butt;"></line>
<polyline points="79.69,77.30 80.66,68.85 72.86,72.23 " style="stroke-width: 2.67; stroke: #F6AD55; stroke-dasharray: 14.23,14.23; stroke-linecap: butt;"></polyline>
<line x1="27.64" y1="86.70" x2="27.64" y2="104.54" style="stroke-width: 2.67; stroke: #7FA0B8;"></line>
<line x1="27.64" y1="104.54" x2="93.92" y2="104.54" style="stroke-width: 2.67; stroke: #7FA0B8; stroke-linecap: butt;"></line>
<polyline points="86.56,108.79 93.92,104.54 86.56,100.29 " style="stroke-width: 2.67; stroke: #7FA0B8; stroke-linecap: butt;"></polyline>
<line x1="54.15" y1="104.54" x2="67.41" y2="86.70" style="stroke-width: 2.67; stroke: #7FA0B8; stroke-dasharray: 14.23,14.23;"></line>
</g>
<g clip-path="url(#cpMC4wMHwxMjQuNDR8MC4wMHwxNDQuMDA=)">
</g>
<g clip-path="url(#cpMC4wMHwxMjQuMzh8MC4wMHwxNDQuMDA=)">
</g>
<g clip-path="url(#cpMC4wMHwxMjQuNDR8MC4wMHwxNDQuMDA=)">
</g>
<g clip-path="url(#cpMC4wMHwxMjQuMzh8MC4wMHwxNDQuMDA=)">
</g>
<g clip-path="url(#cpMC4wMHwxMjQuNDR8MC4wMHwxNDQuMDA=)">
</g>
<g clip-path="url(#cpMC4wMHwxMjQuMzh8MC4wMHwxNDQuMDA=)">
</g>
<g clip-path="url(#cpMC4wMHwxMjQuNDR8MC4wMHwxNDQuMDA=)">
</g>
<g clip-path="url(#cpMC4wMHwxMjQuMzh8MC4wMHwxNDQuMDA=)">
</g>
<g clip-path="url(#cpMC4wMHwxMjQuNDR8MC4wMHwxNDQuMDA=)">
</g>
<g clip-path="url(#cpMC4wMHwxMjQuMzh8MC4wMHwxNDQuMDA=)">
</g>
<g clip-path="url(#cpMC4wMHwxMjQuNDR8MC4wMHwxNDQuMDA=)">
</g>
<g clip-path="url(#cpMC4wMHwxMjQuMzh8MC4wMHwxNDQuMDA=)">
</g>
<g clip-path="url(#cpMC4wMHwxMjQuNDR8MC4wMHwxNDQuMDA=)">
</g>
<g clip-path="url(#cpMC4wMHwxMjQuMzh8MC4wMHwxNDQuMDA=)">
</g>
<g clip-path="url(#cpMC4wMHwxMjQuNDR8MC4wMHwxNDQuMDA=)">
</g>
<g clip-path="url(#cpMC4wMHwxMjQuMzh8MC4wMHwxNDQuMDA=)">
</g>
<g clip-path="url(#cpMC4wMHwxMjQuNDR8MC4wMHwxNDQuMDA=)">
</g>
<g clip-path="url(#cpMC4wMHwxMjQuMzh8MC4wMHwxNDQuMDA=)">
</g>
<g clip-path="url(#cpMC4wMHwxMjQuNDR8MC4wMHwxNDQuMDA=)">
</g>
<g clip-path="url(#cpMC4wMHwxMjQuMzh8MC4wMHwxNDQuMDA=)">
</g>
<g clip-path="url(#cpMC4wMHwxMjQuNDR8MC4wMHwxNDQuMDA=)">
</g>
<g clip-path="url(#cpMC4wMHwxMjQuMzh8MC4wMHwxNDQuMDA=)">
</g>
<g clip-path="url(#cpMC4wMHwxMjQuNDR8MC4wMHwxNDQuMDA=)">
</g>
<g clip-path="url(#cpMC4wMHwxMjQuMzh8MC4wMHwxNDQuMDA=)">
</g>
<g clip-path="url(#cpMC4wMHwxMjQuNDR8MC4wMHwxNDQuMDA=)">
</g>
<g clip-path="url(#cpMC4wMHwxMjQuMzh8MC4wMHwxNDQuMDA=)">
</g>
<g clip-path="url(#cpMC4wMHwxMjQuNDR8MC4wMHwxNDQuMDA=)">
</g>
<g clip-path="url(#cpMC4wMHwxMjQuMzh8MC4wMHwxNDQuMDA=)">
</g>
<g clip-path="url(#cpMC4wMHwxMjQuNDR8MC4wMHwxNDQuMDA=)">
</g>
<g clip-path="url(#cpMC4wMHwxMjQuMzh8MC4wMHwxNDQuMDA=)">
</g>
<g clip-path="url(#cpMC4wMHwxMjQuNDR8MC4wMHwxNDQuMDA=)">
</g>
<g clip-path="url(#cpMC4wMHwxMjQuMzh8MC4wMHwxNDQuMDA=)">
</g>
<g clip-path="url(#cpMC4wMHwxMjQuNDR8MC4wMHwxNDQuMDA=)">
</g>
<g clip-path="url(#cpMC4wMHwxMjQuMzh8MC4wMHwxNDQuMDA=)">
</g>
<g clip-path="url(#cpMC4wMHwxMjQuNDR8MC4wMHwxNDQuMDA=)">
</g>
<g clip-path="url(#cpMC4wMHwxMjQuMzh8MC4wMHwxNDQuMDA=)">
</g>
<g clip-path="url(#cpMC4wMHwxMjQuNDR8MC4wMHwxNDQuMDA=)">
</g>
<g clip-path="url(#cpMC4wMHwxMjQuMzh8MC4wMHwxNDQuMDA=)">
</g>
<g clip-path="url(#cpMC4wMHwxMjQuNDR8MC4wMHwxNDQuMDA=)">
</g>
<g clip-path="url(#cpMC4wMHwxMjQuMzh8MC4wMHwxNDQuMDA=)">
</g>
<g clip-path="url(#cpMC4wMHwxMjQuNDR8MC4wMHwxNDQuMDA=)">
</g>
<g clip-path="url(#cpMC4wMHwxMjQuMzh8MC4wMHwxNDQuMDA=)">
<polygon points="3.38,40.30 3.38,106.58 60.78,139.72 118.18,106.58 118.18,40.30 60.78,7.16 3.38,40.30 " style="stroke-width: 4.69; stroke-linecap: butt;"></polygon>
<path d="M 17.28 45.28 L 15.51 45.28 L 15.42 44.96 L 19.33 40.59 L 19.51 40.59 L 19.51 43.48 L 22.47 43.48 L 22.47 43.48 L 22.49 43.56 L 22.50 43.64 L 22.52 43.72 L 22.53 43.80 L 22.54 43.89 L 22.55 43.98 L 22.55 44.07 L 22.56 44.16 L 22.56 44.25 L 22.56 44.34 L 22.56 44.34 L 22.56 44.39 L 22.56 44.44 L 22.56 44.49 L 22.56 44.54 L 22.56 44.59 L 22.55 44.64 L 22.55 44.68 L 22.55 44.73 L 22.54 44.78 L 22.54 44.82 L 22.54 44.82 L 22.54 44.87 L 22.53 44.91 L 22.52 44.96 L 22.52 45.00 L 22.51 45.05 L 22.50 45.10 L 22.50 45.14 L 22.49 45.19 L 22.48 45.23 L 22.47 45.28 L 19.51 45.28 L 19.51 50.60 L 19.51 50.60 L 19.51 50.79 L 19.52 50.97 L 19.52 51.14 L 19.52 51.31 L 19.53 51.46 L 19.54 51.61 L 19.55 51.75 L 19.56 51.89 L 19.57 52.01 L 19.58 52.13 L 19.58 52.13 L 19.60 52.24 L 19.62 52.35 L 19.64 52.45 L 19.67 52.54 L 19.69 52.63 L 19.72 52.72 L 19.75 52.80 L 19.78 52.88 L 19.82 52.95 L 19.85 53.02 L 19.85 53.02 L 19.90 53.07 L 19.94 53.13 L 19.99 53.18 L 20.04 53.22 L 20.09 53.27 L 20.14 53.31 L 20.20 53.34 L 20.25 53.37 L 20.31 53.40 L 20.38 53.43 L 20.38 53.43 L 20.45 53.44 L 20.52 53.46 L 20.60 53.47 L 20.68 53.48 L 20.76 53.49 L 20.84 53.50 L 20.93 53.51 L 21.03 53.51 L 21.12 53.52 L 21.22 53.52 L 21.22 53.52 L 21.30 53.52 L 21.37 53.52 L 21.45 53.51 L 21.52 53.51 L 21.60 53.51 L 21.67 53.50 L 21.74 53.49 L 21.81 53.49 L 21.88 53.48 L 21.95 53.47 L 21.95 53.47 L 22.02 53.46 L 22.08 53.44 L 22.15 53.43 L 22.21 53.42 L 22.27 53.40 L 22.33 53.39 L 22.39 53.38 L 22.45 53.36 L 22.51 53.35 L 22.56 53.33 L 22.56 53.33 L 22.59 53.43 L 22.62 53.52 L 22.65 53.61 L 22.67 53.70 L 22.69 53.80 L 22.70 53.89 L 22.72 53.98 L 22.73 54.08 L 22.74 54.17 L 22.74 54.27 L 22.74 54.27 L 22.75 54.36 L 22.76 54.45 L 22.77 54.54 L 22.77 54.63 L 22.78 54.72 L 22.78 54.80 L 22.79 54.88 L 22.79 54.96 L 22.79 55.04 L 22.79 55.11 L 22.79 55.11 L 22.70 55.13 L 22.61 55.15 L 22.51 55.17 L 22.42 55.19 L 22.32 55.21 L 22.23 55.22 L 22.13 55.24 L 22.03 55.25 L 21.93 55.26 L 21.83 55.27 L 21.83 55.27 L 21.73 55.28 L 21.63 55.29 L 21.53 55.30 L 21.42 55.31 L 21.32 55.32 L 21.21 55.33 L 21.10 55.33 L 20.99 55.34 L 20.88 55.34 L 20.76 55.34 L 20.76 55.34 L 20.44 55.33 L 20.14 55.31 L 19.84 55.27 L 19.57 55.21 L 19.30 55.14 L 19.05 55.05 L 18.82 54.95 L 18.59 54.83 L 18.39 54.69 L 18.19 54.54 L 18.19 54.54 L 18.02 54.37 L 17.86 54.18 L 17.73 53.97 L 17.61 53.74 L 17.51 53.48 L 17.43 53.21 L 17.36 52.91 L 17.32 52.60 L 17.29 52.26 L 17.28 51.90 L 17.28 45.28 Z" style="fill-rule: nonzero; fill: #000000; stroke-width: 0.75; stroke: none;"></path>
<path d="M 25.00 43.48 L 25.00 43.48 L 25.05 43.47 L 25.10 43.46 L 25.15 43.45 L 25.19 43.45 L 25.24 43.44 L 25.29 43.43 L 25.34 43.43 L 25.38 43.42 L 25.43 43.42 L 25.48 43.41 L 25.48 43.41 L 25.52 43.41 L 25.57 43.40 L 25.61 43.40 L 25.66 43.40 L 25.71 43.39 L 25.76 43.39 L 25.81 43.39 L 25.86 43.39 L 25.90 43.39 L 25.95 43.39 L 25.95 43.39 L 26.00 43.39 L 26.05 43.39 L 26.10 43.39 L 26.15 43.39 L 26.20 43.39 L 26.25 43.40 L 26.30 43.40 L 26.35 43.40 L 26.40 43.41 L 26.46 43.41 L 26.46 43.41 L 26.50 43.42 L 26.55 43.42 L 26.60 43.43 L 26.65 43.43 L 26.69 43.44 L 26.74 43.45 L 26.78 43.45 L 26.83 43.46 L 26.87 43.47 L 26.91 43.48 L 26.91 43.48 L 26.92 43.55 L 26.94 43.62 L 26.95 43.70 L 26.96 43.79 L 26.98 43.88 L 26.99 43.97 L 27.01 44.07 L 27.02 44.17 L 27.03 44.28 L 27.05 44.39 L 27.05 44.39 L 27.06 44.50 L 27.07 44.60 L 27.08 44.70 L 27.09 44.80 L 27.10 44.90 L 27.10 44.99 L 27.11 45.08 L 27.11 45.16 L 27.11 45.24 L 27.12 45.32 L 27.12 45.32 L 27.21 45.17 L 27.32 45.02 L 27.43 44.88 L 27.54 44.74 L 27.67 44.60 L 27.80 44.47 L 27.93 44.34 L 28.07 44.22 L 28.22 44.10 L 28.37 43.98 L 28.37 43.98 L 28.53 43.87 L 28.70 43.77 L 28.88 43.69 L 29.07 43.62 L 29.27 43.55 L 29.48 43.50 L 29.69 43.46 L 29.92 43.43 L 30.15 43.42 L 30.39 43.41 L 30.39 43.41 L 30.43 43.41 L 30.47 43.41 L 30.50 43.41 L 30.54 43.41 L 30.58 43.42 L 30.61 43.42 L 30.65 43.42 L 30.68 43.43 L 30.72 43.43 L 30.76 43.43 L 30.76 43.43 L 30.80 43.43 L 30.84 43.43 L 30.87 43.44 L 30.91 43.44 L 30.94 43.44 L 30.98 43.44 L 31.01 43.44 L 31.04 43.45 L 31.07 43.45 L 31.10 43.46 L 31.10 43.46 L 31.11 43.50 L 31.12 43.54 L 31.12 43.58 L 31.13 43.62 L 31.14 43.67 L 31.14 43.71 L 31.15 43.75 L 31.16 43.80 L 31.16 43.84 L 31.17 43.89 L 31.17 43.89 L 31.17 43.93 L 31.18 43.98 L 31.18 44.03 L 31.18 44.07 L 31.18 44.12 L 31.19 44.17 L 31.19 44.22 L 31.19 44.27 L 31.19 44.32 L 31.19 44.37 L 31.19 44.37 L 31.19 44.42 L 31.19 44.48 L 31.19 44.53 L 31.18 44.59 L 31.18 44.65 L 31.17 44.70 L 31.17 44.76 L 31.16 44.82 L 31.15 44.88 L 31.14 44.94 L 31.14 44.94 L 31.14 44.99 L 31.13 45.05 L 31.13 45.11 L 31.12 45.17 L 31.12 45.23 L 31.11 45.28 L 31.10 45.34 L 31.09 45.39 L 31.08 45.45 L 31.08 45.50 L 31.08 45.50 L 31.04 45.50 L 31.00 45.49 L 30.96 45.48 L 30.93 45.48 L 30.89 45.47 L 30.85 45.47 L 30.81 45.46 L 30.77 45.46 L 30.73 45.46 L 30.69 45.46 L 30.69 45.46 L 30.65 45.46 L 30.62 45.46 L 30.59 45.46 L 30.55 45.46 L 30.52 45.46 L 30.49 45.46 L 30.47 45.46 L 30.44 45.46 L 30.42 45.46 L 30.39 45.46 L 30.39 45.46 L 30.27 45.46 L 30.15 45.47 L 30.03 45.48 L 29.91 45.49 L 29.79 45.50 L 29.67 45.52 L 29.55 45.55 L 29.44 45.58 L 29.32 45.61 L 29.21 45.64 L 29.21 45.64 L 29.10 45.68 L 28.99 45.72 L 28.89 45.76 L 28.79 45.81 L 28.69 45.87 L 28.59 45.93 L 28.49 46.00 L 28.39 46.07 L 28.30 46.15 L 28.21 46.23 L 28.21 46.23 L 28.12 46.32 L 28.04 46.42 L 27.96 46.52 L 27.89 46.63 L 27.82 46.75 L 27.75 46.87 L 27.68 46.99 L 27.62 47.13 L 27.56 47.27 L 27.50 47.42 L 27.50 47.42 L 27.45 47.57 L 27.41 47.73 L 27.37 47.91 L 27.34 48.09 L 27.31 48.28 L 27.29 48.47 L 27.27 48.68 L 27.26 48.90 L 27.25 49.12 L 27.25 49.35 L 27.25 55.16 L 27.25 55.16 L 27.20 55.16 L 27.15 55.17 L 27.10 55.18 L 27.04 55.19 L 26.98 55.20 L 26.93 55.20 L 26.87 55.21 L 26.81 55.21 L 26.75 55.22 L 26.68 55.22 L 26.68 55.22 L 26.62 55.23 L 26.57 55.23 L 26.51 55.24 L 26.45 55.24 L 26.40 55.24 L 26.34 55.24 L 26.29 55.24 L 26.24 55.25 L 26.19 55.25 L 26.14 55.25 L 26.14 55.25 L 26.09 55.25 L 26.03 55.25 L 25.98 55.24 L 25.93 55.24 L 25.87 55.24 L 25.81 55.24 L 25.75 55.24 L 25.69 55.23 L 25.63 55.23 L 25.57 55.22 L 25.57 55.22 L 25.51 55.22 L 25.45 55.21 L 25.39 55.21 L 25.33 55.20 L 25.28 55.20 L 25.22 55.19 L 25.16 55.18 L 25.11 55.17 L 25.05 55.16 L 25.00 55.16 L 25.00 43.48 Z" style="fill-rule: nonzero; fill: #000000; stroke-width: 0.75; stroke: none;"></path>
<path d="M 33.90 45.28 L 32.12 45.28 L 32.03 44.96 L 35.95 40.59 L 36.13 40.59 L 36.13 43.48 L 39.09 43.48 L 39.09 43.48 L 39.11 43.56 L 39.12 43.64 L 39.13 43.72 L 39.15 43.80 L 39.16 43.89 L 39.16 43.98 L 39.17 44.07 L 39.18 44.16 L 39.18 44.25 L 39.18 44.34 L 39.18 44.34 L 39.18 44.39 L 39.18 44.44 L 39.18 44.49 L 39.18 44.54 L 39.17 44.59 L 39.17 44.64 L 39.17 44.68 L 39.16 44.73 L 39.16 44.78 L 39.16 44.82 L 39.16 44.82 L 39.15 44.87 L 39.15 44.91 L 39.14 44.96 L 39.13 45.00 L 39.13 45.05 L 39.12 45.10 L 39.11 45.14 L 39.11 45.19 L 39.10 45.23 L 39.09 45.28 L 36.13 45.28 L 36.13 50.60 L 36.13 50.60 L 36.13 50.79 L 36.13 50.97 L 36.14 51.14 L 36.14 51.31 L 36.15 51.46 L 36.15 51.61 L 36.16 51.75 L 36.17 51.89 L 36.18 52.01 L 36.20 52.13 L 36.20 52.13 L 36.22 52.24 L 36.24 52.35 L 36.26 52.45 L 36.28 52.54 L 36.31 52.63 L 36.34 52.72 L 36.37 52.80 L 36.40 52.88 L 36.43 52.95 L 36.47 53.02 L 36.47 53.02 L 36.51 53.07 L 36.56 53.13 L 36.60 53.18 L 36.65 53.22 L 36.70 53.27 L 36.76 53.31 L 36.81 53.34 L 36.87 53.37 L 36.93 53.40 L 36.99 53.43 L 36.99 53.43 L 37.06 53.44 L 37.14 53.46 L 37.21 53.47 L 37.29 53.48 L 37.38 53.49 L 37.46 53.50 L 37.55 53.51 L 37.64 53.51 L 37.74 53.52 L 37.84 53.52 L 37.84 53.52 L 37.91 53.52 L 37.99 53.52 L 38.06 53.51 L 38.14 53.51 L 38.21 53.51 L 38.28 53.50 L 38.36 53.49 L 38.43 53.49 L 38.50 53.48 L 38.56 53.47 L 38.56 53.47 L 38.63 53.46 L 38.70 53.44 L 38.76 53.43 L 38.83 53.42 L 38.89 53.40 L 38.95 53.39 L 39.01 53.38 L 39.07 53.36 L 39.12 53.35 L 39.18 53.33 L 39.18 53.33 L 39.21 53.43 L 39.24 53.52 L 39.26 53.61 L 39.28 53.70 L 39.30 53.80 L 39.32 53.89 L 39.34 53.98 L 39.35 54.08 L 39.36 54.17 L 39.36 54.27 L 39.36 54.27 L 39.37 54.36 L 39.38 54.45 L 39.38 54.54 L 39.39 54.63 L 39.40 54.72 L 39.40 54.80 L 39.40 54.88 L 39.40 54.96 L 39.41 55.04 L 39.41 55.11 L 39.41 55.11 L 39.32 55.13 L 39.22 55.15 L 39.13 55.17 L 39.04 55.19 L 38.94 55.21 L 38.84 55.22 L 38.75 55.24 L 38.65 55.25 L 38.55 55.26 L 38.45 55.27 L 38.45 55.27 L 38.35 55.28 L 38.25 55.29 L 38.14 55.30 L 38.04 55.31 L 37.93 55.32 L 37.83 55.33 L 37.72 55.33 L 37.61 55.34 L 37.49 55.34 L 37.38 55.34 L 37.38 55.34 L 37.06 55.33 L 36.75 55.31 L 36.46 55.27 L 36.18 55.21 L 35.92 55.14 L 35.67 55.05 L 35.43 54.95 L 35.21 54.83 L 35.00 54.69 L 34.81 54.54 L 34.81 54.54 L 34.64 54.37 L 34.48 54.18 L 34.34 53.97 L 34.23 53.74 L 34.13 53.48 L 34.04 53.21 L 33.98 52.91 L 33.93 52.60 L 33.91 52.26 L 33.90 51.90 L 33.90 45.28 Z" style="fill-rule: nonzero; fill: #000000; stroke-width: 0.75; stroke: none;"></path>
<path d="M 41.41 53.04 L 41.41 53.04 L 41.53 53.09 L 41.66 53.14 L 41.79 53.18 L 41.92 53.22 L 42.05 53.27 L 42.19 53.31 L 42.33 53.34 L 42.47 53.38 L 42.61 53.42 L 42.75 53.45 L 42.75 53.45 L 42.90 53.47 L 43.05 53.50 L 43.20 53.52 L 43.35 53.54 L 43.50 53.55 L 43.65 53.56 L 43.79 53.57 L 43.94 53.58 L 44.09 53.58 L 44.23 53.59 L 44.23 53.59 L 44.34 53.58 L 44.44 53.58 L 44.54 53.58 L 44.64 53.57 L 44.74 53.56 L 44.84 53.54 L 44.94 53.53 L 45.04 53.51 L 45.14 53.49 L 45.23 53.47 L 45.23 53.47 L 45.33 53.45 L 45.42 53.42 L 45.51 53.39 L 45.59 53.36 L 45.68 53.33 L 45.76 53.29 L 45.84 53.26 L 45.91 53.22 L 45.98 53.17 L 46.05 53.13 L 46.05 53.13 L 46.12 53.08 L 46.19 53.04 L 46.26 52.99 L 46.32 52.93 L 46.38 52.88 L 46.43 52.82 L 46.49 52.77 L 46.53 52.71 L 46.58 52.65 L 46.62 52.58 L 46.62 52.58 L 46.67 52.51 L 46.70 52.44 L 46.74 52.37 L 46.77 52.30 L 46.79 52.23 L 46.81 52.15 L 46.83 52.07 L 46.84 51.99 L 46.85 51.91 L 46.85 51.83 L 46.85 51.83 L 46.85 51.74 L 46.84 51.66 L 46.83 51.57 L 46.82 51.49 L 46.80 51.42 L 46.78 51.34 L 46.76 51.27 L 46.73 51.21 L 46.70 51.14 L 46.67 51.08 L 46.67 51.08 L 46.63 51.02 L 46.60 50.97 L 46.56 50.91 L 46.52 50.86 L 46.47 50.81 L 46.43 50.76 L 46.38 50.71 L 46.33 50.67 L 46.27 50.62 L 46.21 50.58 L 46.21 50.58 L 46.16 50.54 L 46.10 50.50 L 46.04 50.46 L 45.98 50.43 L 45.91 50.39 L 45.84 50.36 L 45.77 50.33 L 45.70 50.30 L 45.63 50.27 L 45.55 50.24 L 45.55 50.24 L 45.48 50.21 L 45.40 50.18 L 45.33 50.15 L 45.25 50.12 L 45.17 50.09 L 45.09 50.06 L 45.01 50.03 L 44.93 50.00 L 44.84 49.97 L 44.76 49.94 L 43.96 49.65 L 43.96 49.65 L 43.68 49.54 L 43.41 49.42 L 43.16 49.31 L 42.92 49.19 L 42.70 49.07 L 42.50 48.94 L 42.31 48.82 L 42.14 48.69 L 41.98 48.55 L 41.84 48.42 L 41.84 48.42 L 41.72 48.28 L 41.60 48.13 L 41.51 47.97 L 41.42 47.80 L 41.35 47.62 L 41.29 47.43 L 41.24 47.23 L 41.21 47.02 L 41.19 46.80 L 41.18 46.57 L 41.18 46.57 L 41.19 46.27 L 41.23 45.98 L 41.28 45.70 L 41.36 45.44 L 41.46 45.19 L 41.58 44.95 L 41.72 44.72 L 41.88 44.51 L 42.07 44.30 L 42.27 44.12 L 42.27 44.12 L 42.51 43.94 L 42.76 43.79 L 43.04 43.65 L 43.33 43.53 L 43.65 43.43 L 43.98 43.35 L 44.34 43.29 L 44.71 43.24 L 45.11 43.21 L 45.53 43.21 L 45.53 43.21 L 45.71 43.21 L 45.88 43.21 L 46.06 43.22 L 46.23 43.23 L 46.41 43.25 L 46.58 43.27 L 46.75 43.29 L 46.92 43.32 L 47.09 43.35 L 47.26 43.39 L 47.26 43.39 L 47.43 43.42 L 47.60 43.45 L 47.76 43.49 L 47.92 43.53 L 48.07 43.56 L 48.22 43.60 L 48.36 43.64 L 48.50 43.69 L 48.63 43.73 L 48.76 43.77 L 48.76 43.77 L 48.75 43.87 L 48.74 43.96 L 48.73 44.05 L 48.71 44.14 L 48.69 44.23 L 48.67 44.32 L 48.65 44.41 L 48.63 44.50 L 48.61 44.59 L 48.58 44.69 L 48.58 44.69 L 48.56 44.78 L 48.53 44.86 L 48.51 44.95 L 48.48 45.04 L 48.45 45.12 L 48.42 45.21 L 48.39 45.29 L 48.35 45.37 L 48.32 45.45 L 48.28 45.53 L 48.28 45.53 L 48.18 45.49 L 48.08 45.46 L 47.97 45.42 L 47.85 45.39 L 47.73 45.35 L 47.61 45.32 L 47.48 45.28 L 47.35 45.25 L 47.22 45.22 L 47.08 45.19 L 47.08 45.19 L 46.94 45.15 L 46.80 45.12 L 46.66 45.09 L 46.51 45.07 L 46.37 45.05 L 46.22 45.03 L 46.07 45.02 L 45.91 45.01 L 45.76 45.01 L 45.60 45.00 L 45.60 45.00 L 45.43 45.01 L 45.27 45.02 L 45.11 45.03 L 44.95 45.05 L 44.80 45.08 L 44.65 45.11 L 44.51 45.15 L 44.37 45.19 L 44.23 45.24 L 44.10 45.30 L 44.10 45.30 L 43.97 45.36 L 43.87 45.44 L 43.77 45.52 L 43.69 45.61 L 43.62 45.71 L 43.56 45.82 L 43.52 45.94 L 43.48 46.06 L 43.46 46.20 L 43.46 46.35 L 43.46 46.35 L 43.46 46.42 L 43.46 46.50 L 43.47 46.57 L 43.48 46.64 L 43.50 46.71 L 43.52 46.77 L 43.54 46.83 L 43.56 46.89 L 43.59 46.95 L 43.62 47.01 L 43.62 47.01 L 43.65 47.06 L 43.69 47.11 L 43.72 47.16 L 43.76 47.21 L 43.81 47.26 L 43.85 47.31 L 43.90 47.36 L 43.95 47.40 L 44.00 47.44 L 44.05 47.49 L 44.05 47.49 L 44.11 47.52 L 44.16 47.56 L 44.22 47.59 L 44.28 47.62 L 44.34 47.66 L 44.40 47.69 L 44.47 47.72 L 44.53 47.75 L 44.60 47.78 L 44.66 47.80 L 44.66 47.80 L 44.74 47.83 L 44.81 47.86 L 44.89 47.89 L 44.96 47.91 L 45.04 47.94 L 45.12 47.97 L 45.20 47.99 L 45.28 48.02 L 45.36 48.05 L 45.44 48.08 L 46.44 48.42 L 46.44 48.42 L 46.55 48.46 L 46.66 48.49 L 46.76 48.53 L 46.87 48.57 L 46.97 48.62 L 47.07 48.66 L 47.17 48.71 L 47.27 48.75 L 47.37 48.80 L 47.46 48.85 L 47.46 48.85 L 47.56 48.90 L 47.66 48.96 L 47.75 49.01 L 47.84 49.07 L 47.93 49.14 L 48.01 49.20 L 48.09 49.27 L 48.16 49.34 L 48.24 49.41 L 48.31 49.49 L 48.31 49.49 L 48.38 49.56 L 48.45 49.64 L 48.51 49.72 L 48.57 49.81 L 48.63 49.90 L 48.69 49.99 L 48.74 50.09 L 48.79 50.19 L 48.83 50.29 L 48.88 50.40 L 48.88 50.40 L 48.92 50.51 L 48.96 50.62 L 48.99 50.73 L 49.02 50.85 L 49.05 50.98 L 49.07 51.11 L 49.08 51.24 L 49.09 51.38 L 49.10 51.53 L 49.10 51.67 L 49.10 51.67 L 49.10 51.84 L 49.09 52.00 L 49.07 52.17 L 49.05 52.33 L 49.02 52.48 L 48.98 52.63 L 48.94 52.79 L 48.88 52.93 L 48.83 53.08 L 48.76 53.22 L 48.76 53.22 L 48.69 53.36 L 48.61 53.49 L 48.53 53.61 L 48.44 53.74 L 48.35 53.86 L 48.25 53.97 L 48.14 54.09 L 48.03 54.20 L 47.91 54.30 L 47.78 54.40 L 47.78 54.40 L 47.66 54.50 L 47.53 54.59 L 47.39 54.67 L 47.25 54.75 L 47.10 54.83 L 46.95 54.90 L 46.79 54.97 L 46.63 55.04 L 46.46 55.10 L 46.28 55.16 L 46.28 55.16 L 46.10 55.21 L 45.92 55.25 L 45.73 55.30 L 45.54 55.33 L 45.35 55.36 L 45.15 55.39 L 44.95 55.40 L 44.74 55.42 L 44.54 55.43 L 44.32 55.43 L 44.32 55.43 L 44.11 55.43 L 43.90 55.42 L 43.69 55.41 L 43.49 55.40 L 43.30 55.39 L 43.11 55.37 L 42.93 55.35 L 42.75 55.33 L 42.58 55.30 L 42.41 55.27 L 42.41 55.27 L 42.25 55.24 L 42.09 55.21 L 41.93 55.18 L 41.77 55.14 L 41.62 55.10 L 41.47 55.06 L 41.32 55.02 L 41.17 54.98 L 41.03 54.93 L 40.89 54.88 L 40.89 54.88 L 40.90 54.79 L 40.91 54.70 L 40.92 54.61 L 40.94 54.52 L 40.95 54.43 L 40.97 54.34 L 40.99 54.25 L 41.02 54.15 L 41.04 54.06 L 41.07 53.97 L 41.07 53.97 L 41.10 53.88 L 41.13 53.78 L 41.17 53.69 L 41.20 53.59 L 41.23 53.50 L 41.27 53.41 L 41.30 53.31 L 41.34 53.22 L 41.37 53.13 L 41.41 53.04 Z" style="fill-rule: nonzero; fill: #000000; stroke-width: 0.75; stroke: none;"></path>
<path d="M 50.65 43.48 L 50.65 43.48 L 50.72 43.47 L 50.78 43.46 L 50.84 43.45 L 50.91 43.45 L 50.97 43.44 L 51.03 43.43 L 51.10 43.43 L 51.16 43.42 L 51.22 43.42 L 51.29 43.41 L 51.29 43.41 L 51.35 43.41 L 51.41 43.40 L 51.47 43.40 L 51.53 43.40 L 51.59 43.39 L 51.65 43.39 L 51.70 43.39 L 51.75 43.39 L 51.81 43.39 L 51.86 43.39 L 51.86 43.39 L 51.92 43.39 L 51.99 43.39 L 52.05 43.39 L 52.11 43.39 L 52.18 43.39 L 52.24 43.40 L 52.30 43.40 L 52.37 43.40 L 52.43 43.41 L 52.50 43.41 L 52.50 43.41 L 52.56 43.42 L 52.63 43.42 L 52.69 43.43 L 52.75 43.43 L 52.81 43.44 L 52.87 43.45 L 52.93 43.45 L 52.98 43.46 L 53.04 43.47 L 53.09 43.48 L 55.36 53.02 L 57.94 43.48 L 57.94 43.48 L 57.99 43.47 L 58.04 43.46 L 58.09 43.45 L 58.14 43.45 L 58.20 43.44 L 58.25 43.43 L 58.31 43.43 L 58.36 43.42 L 58.42 43.42 L 58.48 43.41 L 58.48 43.41 L 58.54 43.41 L 58.60 43.40 L 58.66 43.40 L 58.72 43.40 L 58.78 43.39 L 58.84 43.39 L 58.91 43.39 L 58.97 43.39 L 59.03 43.39 L 59.10 43.39 L 59.10 43.39 L 59.17 43.39 L 59.24 43.40 L 59.30 43.40 L 59.37 43.41 L 59.43 43.41 L 59.49 43.42 L 59.55 43.42 L 59.61 43.42 L 59.66 43.43 L 59.71 43.43 L 59.71 43.43 L 59.77 43.43 L 59.82 43.44 L 59.87 43.44 L 59.93 43.44 L 59.98 43.44 L 60.03 43.45 L 60.08 43.46 L 60.13 43.46 L 60.18 43.47 L 60.23 43.48 L 62.78 52.86 L 65.06 43.48 L 65.06 43.48 L 65.11 43.47 L 65.16 43.46 L 65.21 43.45 L 65.26 43.45 L 65.31 43.44 L 65.36 43.43 L 65.41 43.43 L 65.46 43.42 L 65.51 43.42 L 65.56 43.41 L 65.56 43.41 L 65.61 43.41 L 65.66 43.40 L 65.71 43.40 L 65.77 43.40 L 65.82 43.39 L 65.88 43.39 L 65.93 43.39 L 65.99 43.39 L 66.05 43.39 L 66.11 43.39 L 66.11 43.39 L 66.16 43.39 L 66.21 43.39 L 66.26 43.39 L 66.31 43.39 L 66.37 43.39 L 66.42 43.40 L 66.48 43.40 L 66.54 43.40 L 66.59 43.41 L 66.65 43.41 L 66.65 43.41 L 66.72 43.42 L 66.78 43.42 L 66.84 43.43 L 66.91 43.43 L 66.97 43.44 L 67.04 43.45 L 67.10 43.45 L 67.16 43.46 L 67.23 43.47 L 67.29 43.48 L 63.81 55.16 L 63.81 55.16 L 63.75 55.16 L 63.69 55.17 L 63.63 55.18 L 63.57 55.19 L 63.51 55.20 L 63.44 55.20 L 63.38 55.21 L 63.32 55.21 L 63.26 55.22 L 63.19 55.22 L 63.19 55.22 L 63.13 55.23 L 63.08 55.23 L 63.02 55.24 L 62.96 55.24 L 62.91 55.24 L 62.85 55.24 L 62.80 55.24 L 62.75 55.25 L 62.70 55.25 L 62.65 55.25 L 62.65 55.25 L 62.60 55.25 L 62.54 55.25 L 62.49 55.24 L 62.44 55.24 L 62.39 55.24 L 62.33 55.24 L 62.27 55.24 L 62.22 55.23 L 62.16 55.23 L 62.10 55.22 L 62.10 55.22 L 62.04 55.22 L 61.98 55.21 L 61.92 55.21 L 61.86 55.20 L 61.80 55.20 L 61.75 55.19 L 61.69 55.18 L 61.63 55.17 L 61.57 55.16 L 61.51 55.16 L 59.01 46.32 L 56.39 55.16 L 56.39 55.16 L 56.32 55.16 L 56.26 55.17 L 56.20 55.18 L 56.13 55.19 L 56.07 55.20 L 56.00 55.20 L 55.94 55.21 L 55.88 55.21 L 55.81 55.22 L 55.75 55.22 L 55.75 55.22 L 55.69 55.23 L 55.63 55.23 L 55.58 55.24 L 55.52 55.24 L 55.47 55.24 L 55.41 55.24 L 55.36 55.24 L 55.31 55.25 L 55.25 55.25 L 55.20 55.25 L 55.20 55.25 L 55.15 55.25 L 55.10 55.25 L 55.05 55.24 L 54.99 55.24 L 54.94 55.24 L 54.88 55.24 L 54.82 55.24 L 54.76 55.23 L 54.70 55.23 L 54.63 55.22 L 54.63 55.22 L 54.58 55.22 L 54.52 55.21 L 54.46 55.21 L 54.41 55.20 L 54.35 55.20 L 54.30 55.19 L 54.24 55.18 L 54.19 55.17 L 54.14 55.16 L 54.09 55.16 L 50.65 43.48 Z" style="fill-rule: nonzero; fill: #000000; stroke-width: 0.75; stroke: none;"></path>
<path d="M 70.30 45.25 L 68.82 45.25 L 68.82 45.25 L 68.81 45.22 L 68.80 45.18 L 68.79 45.14 L 68.78 45.10 L 68.78 45.06 L 68.77 45.02 L 68.76 44.98 L 68.76 44.93 L 68.75 44.89 L 68.75 44.84 L 68.75 44.84 L 68.74 44.79 L 68.74 44.75 L 68.74 44.70 L 68.73 44.65 L 68.73 44.60 L 68.73 44.55 L 68.73 44.51 L 68.73 44.46 L 68.72 44.41 L 68.72 44.37 L 68.72 44.37 L 68.72 44.32 L 68.73 44.28 L 68.73 44.23 L 68.73 44.18 L 68.73 44.14 L 68.73 44.09 L 68.74 44.05 L 68.74 44.00 L 68.74 43.96 L 68.75 43.91 L 68.75 43.91 L 68.75 43.86 L 68.76 43.81 L 68.76 43.77 L 68.77 43.72 L 68.78 43.68 L 68.78 43.64 L 68.79 43.59 L 68.80 43.55 L 68.81 43.52 L 68.82 43.48 L 72.50 43.48 L 72.50 55.16 L 72.50 55.16 L 72.45 55.16 L 72.40 55.17 L 72.35 55.18 L 72.29 55.19 L 72.24 55.20 L 72.18 55.20 L 72.12 55.21 L 72.06 55.21 L 72.00 55.22 L 71.93 55.22 L 71.93 55.22 L 71.88 55.23 L 71.82 55.23 L 71.76 55.24 L 71.70 55.24 L 71.65 55.24 L 71.60 55.24 L 71.54 55.24 L 71.49 55.25 L 71.44 55.25 L 71.39 55.25 L 71.39 55.25 L 71.34 55.25 L 71.29 55.25 L 71.24 55.24 L 71.19 55.24 L 71.14 55.24 L 71.08 55.24 L 71.02 55.24 L 70.97 55.23 L 70.90 55.23 L 70.84 55.22 L 70.84 55.22 L 70.78 55.22 L 70.72 55.21 L 70.67 55.21 L 70.61 55.20 L 70.56 55.20 L 70.50 55.19 L 70.45 55.18 L 70.40 55.17 L 70.35 55.16 L 70.30 55.16 L 70.30 45.25 ZM 69.79 40.91 L 69.79 40.91 L 69.79 40.85 L 69.78 40.80 L 69.77 40.74 L 69.76 40.68 L 69.75 40.62 L 69.75 40.56 L 69.74 40.50 L 69.74 40.44 L 69.73 40.38 L 69.73 40.31 L 69.73 40.31 L 69.73 40.25 L 69.73 40.19 L 69.73 40.13 L 69.73 40.07 L 69.73 40.01 L 69.73 39.96 L 69.73 39.90 L 69.73 39.85 L 69.73 39.80 L 69.73 39.75 L 69.73 39.75 L 69.73 39.70 L 69.73 39.64 L 69.73 39.59 L 69.73 39.53 L 69.73 39.48 L 69.73 39.42 L 69.73 39.36 L 69.73 39.30 L 69.73 39.24 L 69.73 39.18 L 69.73 39.18 L 69.73 39.11 L 69.74 39.05 L 69.74 38.99 L 69.75 38.93 L 69.75 38.88 L 69.76 38.82 L 69.77 38.76 L 69.78 38.71 L 69.79 38.66 L 69.79 38.61 L 69.79 38.61 L 69.85 38.60 L 69.91 38.59 L 69.98 38.58 L 70.04 38.58 L 70.10 38.57 L 70.17 38.56 L 70.23 38.56 L 70.30 38.55 L 70.36 38.54 L 70.43 38.54 L 70.43 38.54 L 70.50 38.54 L 70.56 38.53 L 70.63 38.53 L 70.69 38.52 L 70.75 38.52 L 70.81 38.52 L 70.87 38.52 L 70.92 38.52 L 70.97 38.52 L 71.02 38.52 L 71.02 38.52 L 71.07 38.52 L 71.13 38.52 L 71.18 38.52 L 71.24 38.52 L 71.30 38.52 L 71.36 38.52 L 71.42 38.53 L 71.48 38.53 L 71.55 38.54 L 71.62 38.54 L 71.62 38.54 L 71.68 38.54 L 71.75 38.55 L 71.81 38.56 L 71.88 38.56 L 71.94 38.57 L 72.00 38.58 L 72.06 38.58 L 72.12 38.59 L 72.17 38.60 L 72.23 38.61 L 72.23 38.61 L 72.24 38.66 L 72.25 38.71 L 72.25 38.76 L 72.26 38.82 L 72.26 38.88 L 72.27 38.93 L 72.27 38.99 L 72.27 39.05 L 72.27 39.11 L 72.28 39.18 L 72.28 39.18 L 72.28 39.24 L 72.28 39.30 L 72.29 39.36 L 72.29 39.42 L 72.29 39.48 L 72.29 39.53 L 72.30 39.59 L 72.30 39.64 L 72.30 39.70 L 72.30 39.75 L 72.30 39.75 L 72.30 39.80 L 72.30 39.85 L 72.30 39.90 L 72.29 39.96 L 72.29 40.01 L 72.29 40.07 L 72.29 40.13 L 72.28 40.19 L 72.28 40.25 L 72.28 40.31 L 72.28 40.31 L 72.27 40.38 L 72.27 40.44 L 72.27 40.50 L 72.27 40.56 L 72.26 40.62 L 72.26 40.68 L 72.25 40.74 L 72.25 40.80 L 72.24 40.85 L 72.23 40.91 L 72.23 40.91 L 72.17 40.92 L 72.12 40.92 L 72.06 40.93 L 72.00 40.94 L 71.94 40.95 L 71.88 40.95 L 71.81 40.96 L 71.75 40.97 L 71.68 40.97 L 71.62 40.98 L 71.62 40.98 L 71.55 40.98 L 71.49 40.98 L 71.43 40.99 L 71.37 40.99 L 71.31 40.99 L 71.26 40.99 L 71.20 41.00 L 71.15 41.00 L 71.10 41.00 L 71.05 41.00 L 71.05 41.00 L 70.99 41.00 L 70.93 41.00 L 70.88 41.00 L 70.82 40.99 L 70.76 40.99 L 70.69 40.99 L 70.63 40.99 L 70.57 40.98 L 70.50 40.98 L 70.43 40.98 L 70.43 40.98 L 70.36 40.97 L 70.30 40.97 L 70.23 40.96 L 70.17 40.95 L 70.10 40.95 L 70.04 40.94 L 69.98 40.93 L 69.91 40.92 L 69.85 40.92 L 69.79 40.91 Z" style="fill-rule: nonzero; fill: #000000; stroke-width: 0.75; stroke: none;"></path>
<path d="M 76.60 45.28 L 74.82 45.28 L 74.73 44.96 L 78.65 40.59 L 78.83 40.59 L 78.83 43.48 L 81.79 43.48 L 81.79 43.48 L 81.81 43.56 L 81.82 43.64 L 81.84 43.72 L 81.85 43.80 L 81.86 43.89 L 81.87 43.98 L 81.87 44.07 L 81.88 44.16 L 81.88 44.25 L 81.88 44.34 L 81.88 44.34 L 81.88 44.39 L 81.88 44.44 L 81.88 44.49 L 81.88 44.54 L 81.88 44.59 L 81.87 44.64 L 81.87 44.68 L 81.87 44.73 L 81.86 44.78 L 81.86 44.82 L 81.86 44.82 L 81.85 44.87 L 81.85 44.91 L 81.84 44.96 L 81.84 45.00 L 81.83 45.05 L 81.82 45.10 L 81.82 45.14 L 81.81 45.19 L 81.80 45.23 L 81.79 45.28 L 78.83 45.28 L 78.83 50.60 L 78.83 50.60 L 78.83 50.79 L 78.83 50.97 L 78.84 51.14 L 78.84 51.31 L 78.85 51.46 L 78.86 51.61 L 78.86 51.75 L 78.87 51.89 L 78.89 52.01 L 78.90 52.13 L 78.90 52.13 L 78.92 52.24 L 78.94 52.35 L 78.96 52.45 L 78.99 52.54 L 79.01 52.63 L 79.04 52.72 L 79.07 52.80 L 79.10 52.88 L 79.14 52.95 L 79.17 53.02 L 79.17 53.02 L 79.21 53.07 L 79.26 53.13 L 79.31 53.18 L 79.35 53.22 L 79.41 53.27 L 79.46 53.31 L 79.51 53.34 L 79.57 53.37 L 79.63 53.40 L 79.70 53.43 L 79.70 53.43 L 79.77 53.44 L 79.84 53.46 L 79.92 53.47 L 79.99 53.48 L 80.08 53.49 L 80.16 53.50 L 80.25 53.51 L 80.34 53.51 L 80.44 53.52 L 80.54 53.52 L 80.54 53.52 L 80.62 53.52 L 80.69 53.52 L 80.77 53.51 L 80.84 53.51 L 80.91 53.51 L 80.99 53.50 L 81.06 53.49 L 81.13 53.49 L 81.20 53.48 L 81.27 53.47 L 81.27 53.47 L 81.33 53.46 L 81.40 53.44 L 81.47 53.43 L 81.53 53.42 L 81.59 53.40 L 81.65 53.39 L 81.71 53.38 L 81.77 53.36 L 81.83 53.35 L 81.88 53.33 L 81.88 53.33 L 81.91 53.43 L 81.94 53.52 L 81.96 53.61 L 81.99 53.70 L 82.01 53.80 L 82.02 53.89 L 82.04 53.98 L 82.05 54.08 L 82.06 54.17 L 82.06 54.27 L 82.06 54.27 L 82.07 54.36 L 82.08 54.45 L 82.09 54.54 L 82.09 54.63 L 82.10 54.72 L 82.10 54.80 L 82.10 54.88 L 82.11 54.96 L 82.11 55.04 L 82.11 55.11 L 82.11 55.11 L 82.02 55.13 L 81.92 55.15 L 81.83 55.17 L 81.74 55.19 L 81.64 55.21 L 81.55 55.22 L 81.45 55.24 L 81.35 55.25 L 81.25 55.26 L 81.15 55.27 L 81.15 55.27 L 81.05 55.28 L 80.95 55.29 L 80.85 55.30 L 80.74 55.31 L 80.63 55.32 L 80.53 55.33 L 80.42 55.33 L 80.31 55.34 L 80.20 55.34 L 80.08 55.34 L 80.08 55.34 L 79.76 55.33 L 79.46 55.31 L 79.16 55.27 L 78.88 55.21 L 78.62 55.14 L 78.37 55.05 L 78.13 54.95 L 77.91 54.83 L 77.70 54.69 L 77.51 54.54 L 77.51 54.54 L 77.34 54.37 L 77.18 54.18 L 77.05 53.97 L 76.93 53.74 L 76.83 53.48 L 76.75 53.21 L 76.68 52.91 L 76.64 52.60 L 76.61 52.26 L 76.60 51.90 L 76.60 45.28 Z" style="fill-rule: nonzero; fill: #000000; stroke-width: 0.75; stroke: none;"></path>
<path d="M 92.10 53.13 L 92.10 53.13 L 92.14 53.20 L 92.17 53.26 L 92.21 53.34 L 92.24 53.41 L 92.27 53.49 L 92.30 53.57 L 92.33 53.65 L 92.36 53.74 L 92.39 53.83 L 92.42 53.93 L 92.42 53.93 L 92.45 54.02 L 92.47 54.12 L 92.49 54.22 L 92.51 54.31 L 92.53 54.41 L 92.54 54.51 L 92.56 54.61 L 92.57 54.71 L 92.57 54.81 L 92.58 54.91 L 92.58 54.91 L 92.31 55.00 L 92.03 55.09 L 91.74 55.17 L 91.44 55.24 L 91.14 55.30 L 90.83 55.35 L 90.51 55.38 L 90.18 55.41 L 89.85 55.42 L 89.51 55.43 L 89.51 55.43 L 88.94 55.41 L 88.40 55.36 L 87.89 55.28 L 87.40 55.17 L 86.95 55.02 L 86.53 54.84 L 86.13 54.63 L 85.76 54.38 L 85.42 54.10 L 85.11 53.79 L 85.11 53.79 L 84.83 53.45 L 84.58 53.08 L 84.36 52.69 L 84.17 52.28 L 84.00 51.84 L 83.87 51.39 L 83.77 50.91 L 83.69 50.40 L 83.65 49.88 L 83.63 49.33 L 83.63 49.33 L 83.64 49.07 L 83.65 48.82 L 83.67 48.57 L 83.69 48.32 L 83.72 48.08 L 83.76 47.84 L 83.81 47.60 L 83.87 47.37 L 83.93 47.14 L 84.00 46.92 L 84.00 46.92 L 84.07 46.70 L 84.16 46.48 L 84.25 46.27 L 84.34 46.07 L 84.45 45.87 L 84.56 45.68 L 84.68 45.50 L 84.80 45.32 L 84.93 45.15 L 85.07 44.98 L 85.07 44.98 L 85.22 44.82 L 85.37 44.67 L 85.54 44.52 L 85.71 44.38 L 85.88 44.25 L 86.06 44.12 L 86.25 44.00 L 86.45 43.89 L 86.66 43.78 L 86.87 43.68 L 86.87 43.68 L 87.08 43.59 L 87.31 43.51 L 87.54 43.44 L 87.78 43.38 L 88.02 43.33 L 88.27 43.28 L 88.53 43.25 L 88.80 43.22 L 89.07 43.21 L 89.35 43.21 L 89.35 43.21 L 89.54 43.21 L 89.72 43.21 L 89.90 43.22 L 90.08 43.22 L 90.25 43.23 L 90.41 43.25 L 90.57 43.26 L 90.73 43.28 L 90.88 43.30 L 91.03 43.32 L 91.03 43.32 L 91.18 43.34 L 91.32 43.37 L 91.46 43.40 L 91.60 43.43 L 91.74 43.47 L 91.88 43.51 L 92.02 43.55 L 92.15 43.59 L 92.29 43.64 L 92.42 43.68 L 92.42 43.68 L 92.42 43.76 L 92.42 43.84 L 92.41 43.93 L 92.40 44.02 L 92.39 44.10 L 92.38 44.20 L 92.36 44.29 L 92.35 44.39 L 92.33 44.49 L 92.31 44.59 L 92.31 44.59 L 92.29 44.69 L 92.27 44.79 L 92.24 44.88 L 92.22 44.98 L 92.19 45.07 L 92.16 45.15 L 92.13 45.24 L 92.10 45.32 L 92.07 45.40 L 92.03 45.48 L 92.03 45.48 L 91.81 45.41 L 91.57 45.34 L 91.34 45.28 L 91.09 45.23 L 90.84 45.19 L 90.58 45.16 L 90.32 45.13 L 90.04 45.11 L 89.77 45.10 L 89.48 45.10 L 89.48 45.10 L 89.14 45.11 L 88.82 45.14 L 88.51 45.20 L 88.22 45.28 L 87.95 45.39 L 87.70 45.51 L 87.46 45.66 L 87.25 45.84 L 87.05 46.04 L 86.87 46.26 L 86.87 46.26 L 86.70 46.50 L 86.55 46.75 L 86.42 47.02 L 86.31 47.30 L 86.22 47.60 L 86.14 47.92 L 86.08 48.25 L 86.04 48.59 L 86.01 48.95 L 86.00 49.33 L 86.00 49.33 L 86.01 49.75 L 86.04 50.16 L 86.09 50.54 L 86.16 50.89 L 86.25 51.22 L 86.35 51.53 L 86.48 51.82 L 86.63 52.08 L 86.79 52.32 L 86.98 52.54 L 86.98 52.54 L 87.18 52.73 L 87.40 52.90 L 87.63 53.05 L 87.88 53.18 L 88.14 53.29 L 88.42 53.38 L 88.71 53.45 L 89.01 53.50 L 89.33 53.53 L 89.67 53.54 L 89.67 53.54 L 89.80 53.54 L 89.93 53.54 L 90.07 53.53 L 90.19 53.53 L 90.32 53.52 L 90.44 53.51 L 90.57 53.50 L 90.69 53.48 L 90.80 53.47 L 90.92 53.45 L 90.92 53.45 L 91.04 53.43 L 91.15 53.41 L 91.27 53.38 L 91.39 53.35 L 91.51 53.32 L 91.63 53.29 L 91.75 53.25 L 91.86 53.22 L 91.98 53.17 L 92.10 53.13 Z" style="fill-rule: nonzero; fill: #000000; stroke-width: 0.75; stroke: none;"></path>
<path d="M 95.17 38.47 L 95.17 38.47 L 95.22 38.46 L 95.28 38.45 L 95.33 38.45 L 95.38 38.44 L 95.44 38.43 L 95.49 38.42 L 95.55 38.42 L 95.60 38.41 L 95.66 38.41 L 95.72 38.40 L 95.72 38.40 L 95.78 38.40 L 95.85 38.39 L 95.91 38.39 L 95.96 38.39 L 96.02 38.39 L 96.08 38.38 L 96.13 38.38 L 96.19 38.38 L 96.24 38.38 L 96.29 38.38 L 96.29 38.38 L 96.34 38.38 L 96.39 38.38 L 96.45 38.38 L 96.50 38.38 L 96.56 38.39 L 96.61 38.39 L 96.67 38.39 L 96.73 38.39 L 96.80 38.40 L 96.86 38.40 L 96.86 38.40 L 96.92 38.41 L 96.98 38.41 L 97.04 38.42 L 97.10 38.42 L 97.16 38.43 L 97.22 38.44 L 97.27 38.45 L 97.32 38.45 L 97.38 38.46 L 97.43 38.47 L 97.43 45.25 L 97.43 45.25 L 97.47 45.19 L 97.51 45.13 L 97.56 45.06 L 97.61 44.99 L 97.66 44.92 L 97.71 44.86 L 97.76 44.79 L 97.81 44.72 L 97.87 44.64 L 97.93 44.57 L 97.93 44.57 L 97.99 44.50 L 98.06 44.43 L 98.13 44.36 L 98.20 44.29 L 98.28 44.22 L 98.35 44.16 L 98.43 44.10 L 98.51 44.03 L 98.59 43.97 L 98.68 43.91 L 98.68 43.91 L 98.77 43.85 L 98.87 43.79 L 98.96 43.73 L 99.06 43.68 L 99.16 43.63 L 99.27 43.58 L 99.37 43.53 L 99.48 43.49 L 99.59 43.45 L 99.70 43.41 L 99.70 43.41 L 99.82 43.37 L 99.95 43.34 L 100.07 43.31 L 100.20 43.28 L 100.32 43.26 L 100.45 43.24 L 100.59 43.22 L 100.72 43.21 L 100.86 43.21 L 101.00 43.21 L 101.00 43.21 L 101.39 43.22 L 101.76 43.25 L 102.11 43.31 L 102.44 43.39 L 102.74 43.50 L 103.03 43.62 L 103.29 43.77 L 103.54 43.95 L 103.76 44.15 L 103.96 44.37 L 103.96 44.37 L 104.15 44.61 L 104.31 44.87 L 104.46 45.15 L 104.59 45.46 L 104.69 45.78 L 104.78 46.13 L 104.85 46.51 L 104.90 46.90 L 104.93 47.32 L 104.94 47.76 L 104.94 55.16 L 104.94 55.16 L 104.89 55.16 L 104.84 55.17 L 104.78 55.18 L 104.73 55.19 L 104.67 55.20 L 104.61 55.20 L 104.56 55.21 L 104.49 55.21 L 104.43 55.22 L 104.37 55.22 L 104.37 55.22 L 104.31 55.23 L 104.25 55.23 L 104.20 55.24 L 104.14 55.24 L 104.09 55.24 L 104.03 55.24 L 103.98 55.24 L 103.93 55.25 L 103.87 55.25 L 103.82 55.25 L 103.82 55.25 L 103.77 55.25 L 103.72 55.25 L 103.67 55.24 L 103.61 55.24 L 103.56 55.24 L 103.50 55.24 L 103.44 55.24 L 103.38 55.23 L 103.32 55.23 L 103.25 55.22 L 103.25 55.22 L 103.20 55.22 L 103.14 55.21 L 103.08 55.21 L 103.03 55.20 L 102.97 55.20 L 102.92 55.19 L 102.86 55.18 L 102.81 55.17 L 102.76 55.16 L 102.71 55.16 L 102.71 48.37 L 102.71 48.37 L 102.70 48.06 L 102.69 47.76 L 102.66 47.48 L 102.62 47.22 L 102.57 46.97 L 102.51 46.74 L 102.44 46.53 L 102.36 46.34 L 102.27 46.16 L 102.16 46.01 L 102.16 46.01 L 102.05 45.86 L 101.93 45.73 L 101.80 45.61 L 101.65 45.51 L 101.50 45.43 L 101.33 45.36 L 101.15 45.30 L 100.96 45.26 L 100.76 45.24 L 100.55 45.23 L 100.55 45.23 L 100.42 45.23 L 100.30 45.24 L 100.18 45.25 L 100.06 45.27 L 99.94 45.29 L 99.82 45.31 L 99.71 45.34 L 99.59 45.38 L 99.48 45.42 L 99.36 45.46 L 99.36 45.46 L 99.25 45.50 L 99.14 45.55 L 99.03 45.61 L 98.93 45.67 L 98.83 45.73 L 98.73 45.80 L 98.63 45.88 L 98.54 45.96 L 98.45 46.05 L 98.36 46.14 L 98.36 46.14 L 98.28 46.24 L 98.20 46.34 L 98.12 46.44 L 98.04 46.55 L 97.97 46.67 L 97.91 46.79 L 97.84 46.92 L 97.79 47.06 L 97.73 47.20 L 97.68 47.35 L 97.68 47.35 L 97.63 47.50 L 97.59 47.66 L 97.55 47.83 L 97.52 48.00 L 97.49 48.18 L 97.47 48.36 L 97.45 48.56 L 97.44 48.75 L 97.43 48.96 L 97.43 49.17 L 97.43 55.16 L 97.43 55.16 L 97.38 55.16 L 97.32 55.17 L 97.27 55.18 L 97.22 55.19 L 97.16 55.20 L 97.10 55.20 L 97.04 55.21 L 96.98 55.21 L 96.92 55.22 L 96.86 55.22 L 96.86 55.22 L 96.80 55.23 L 96.73 55.23 L 96.67 55.24 L 96.61 55.24 L 96.56 55.24 L 96.50 55.24 L 96.45 55.24 L 96.39 55.25 L 96.34 55.25 L 96.29 55.25 L 96.29 55.25 L 96.24 55.25 L 96.19 55.25 L 96.14 55.24 L 96.09 55.24 L 96.04 55.24 L 95.98 55.24 L 95.93 55.24 L 95.87 55.23 L 95.81 55.23 L 95.74 55.22 L 95.74 55.22 L 95.68 55.22 L 95.62 55.21 L 95.56 55.21 L 95.50 55.20 L 95.44 55.20 L 95.39 55.19 L 95.33 55.18 L 95.28 55.17 L 95.22 55.16 L 95.17 55.16 L 95.17 38.47 Z" style="fill-rule: nonzero; fill: #000000; stroke-width: 0.75; stroke: none;"></path>
</g>
<g clip-path="url(#cpMC4wMHwxMjQuNDR8MC4wMHwxNDQuMDA=)">
</g>
</g></svg>